<svg xmlns="http://www.w3.org/2000/svg" xmlns:xlink="http://www.w3.org/1999/xlink" viewBox="0 0 2795.05 2400">
  <defs>
    <style>
      .cls-4 {
        clip-path: url(#clip-path);
      }
    </style>
    <clipPath id="clip-path">
      <path class="cls-1" d="M2723,1626c13.3-12.17,27.25-23.32,40-36,1.8-1.79,5.28-2.15,7-4,2-2.14,1.94-6,4-8,1.22-1.21,3.68-.85,5-2,5.47-4.78,9.38-11.31,16-15v-42c-5.3,1.89-12.2,3.42-16,7-2.5,2.35-2.53,7.58-5,10-3.5,3.42-11.42,6-16,8h-4c-.1.08-13.59,19.23-14,20q-3.49,16-7,32c-2.88,8.06-7,18.46-12,25-1.94,2.55-6.1,4.39-8,7-5.71,7.86-9.39,17.19-17,23l-1,1v-1c-4-2.4-3.84-15.21-1-19-.49-6.51-3.19-5.28-6-9-3.73.41-6.87.54-9,1-.1-10.21-1.86-34.45-6-41,2.49-12.6,18.33-27,25-37,9.29-13.93,18.35-28,27-42l7-16c2.64-4.33,6.94-9.18,9-14,4.7-11,8.08-24.41,11-36v-30c3-11.69,6.64-29.51,6-43-.32-6.85-4.9-22.29-2-33,2.86-10.56,9.49-20.23,12-30,2.72-10.58-6.15-32.42-8-40v-16c-1.59-6.46-2.52-15.1-5-22-8.35-23.27-19.38-43.74-31-63-10,2.08-8,13.24-8,25,0,18.21.81,47.31-6,58-2.2,3.45-6.76,6.65-9,10-2.91,4.36-3.27,9.52-6,14-1.47,2.42-4.53,5.58-6,8-3.12,5.13-4.24,12.67-9,16-4.46,3.12-9.66,3.87-14,7l-8,9c-4.66,3.46-9.26,5.57-14,9l-10,10c-7.55,5.16-17.55,7.9-23,15-9.64,12.56-16.65,27-24,42-10.14,20.63-7.05,55.3-1,76,1.75,6,.72,12.77,4,17-.58,9.41-6.76,8.57-12,13-3.67,3.1-7.73,7.59-12,10-2.29,1.29-4.14.46-6,2-7.06,5.85-14.1,13.08-22,18l-1,1c-4.42-7.73-17.49-28.29-18-37-6.63.32-8.84,2.54-13,5v4c2.13-.51,3.62-.89,5-2,10.79,2.1,15.82,24.79,22,33-1.35,10.41-11.3,14.73-16,22l-6,16c-6.38-1.3-9.28-5.79-14-8-5.89-2.77-21.66-5.48-28-7h-22c-3.24-.85-8.54-2.56-13-3-2.21-8.08-10.65-5.72-19-8-11.25-3.07-30.89-1.3-40,4-3.78,2.2-7.31,6.67-12,8-.86,4.53-3.22,13.1-4,20,9.35-1,13.62-8,21-11,5.88-2.42,14.16-2.65,20-4,11.92-2.76,24.38.6,34,3,7.2,1.79,13.79.13,20,3l5,5c18.75,12.79,19.8,19.69,32,38l6,6c2.08,3.82,1.48,7.88,3,12,4.29,11.64,9.23,23.7,17,32v1c-6.23-2.2-10.48-8-16-11-6.62-3.56-16.61-7.38-23-10-4.71-1.93-8.09-.5-13-2-4.4-1.35-9.58-4.7-14-6-6.09-1.79-10.52.18-17-2-5.1-1.72-21.75-12.06-25-16s-4-19.51-4-27h-1c-2.36,5.49-6.53,7.5-9,15-4.68,14.24.6,37,6,46,18.23,30.22,55.11,48.92,89,64,7.85,3.49,15.05,9.54,24,12-4.17,19.29,9.58,26.52,18,39,3.22,4.77,8.72,10.79,6,16v2c-4.56-1.27-12.29-4.13-16-7-4.85-.07-10.63-.16-14,1,1.39,4.83,8.78,17.93,12,22v1c-4.48-1.52-11.48-7.44-13-12-4.42.82-8.44,3.1-12,5-2.29-3.22-3.42-1.89-7-4-3-1.75-5.9-6.09-9-8-3.64-2.24-8.85-2.34-12-5-4.85-.07-10.63-.16-14,1,1.37,7.62,7.33,10.8,10,17q4,12,8,24v4a179.14,179.14,0,0,1-29-23l-6-9c-15.48-12-29.32-13.17-50-20-3.3-1.09-16.29-6.13-20-4-.67.38-1,3.57-2,4h-15c-1.15.41-5.85,3.57-7,4-5.78,2.17-9.86.26-16,2-8.68,2.46-27.62,11-31,18h-1v2c28.66-4.13,53.4-.37,77,8,5.74,2,14,.87,19,4,8.3.74,12,10.68,16,16,13.83,18.41,26.46,37.36,41,55v1c-7.41.07-36,2-36,2-3.17.71-3.34,1.08-5,3-.76,1.08-.63.92-1,3-1.9-.48-17.93-9.41-20-11h-2c2.18,5.2,9,8.33,12,13,2.35,3.64,1.36,8.73,4,12,6.59,8.15,12.62,18.48,20,26v1c-11.71-3.31-16.45-12.16-31-12,2.83,2.36,6.92,2.78,10,5,8.06,5.8,13,16.87,21,23-3.63,4.85-10.56,5.69-14,11h-8c-.4,3.75-1.87,7.16,0,10,.33,1,.67,2,1,3,3.78-.94,3.65-2,5-5,13.38.14,10.62,4.1,17,10,5.48,5.07,13.28,7.11,19,12s11,11.66,17,16c9.11,6.55,21.78,8.7,30,16,2.18,1,1.4-.34,5-1,.11,2.53.12,3.71,1,5v2c-1.6-1.36-1.16-.61-2-3h-2c1.06,3.91,3.44,9.3,6,12-1,14.78-20.54,12.24-32,17-9.25,3.84-17.91,12.73-23,21h-1v1c9.36-.69,22.72-13.31,28-19l10,1,7,5c3,4.68-.9,6,6,10-.92,6.59-4.73,11.13-2,19,2.82,8.13,12.2,12.58,14,21h2c1.32-2.64,2.95-4.32,4-7,2.12-4.46-3.75-14.88,0-21v-2c3.51,1.83,6,5.34,9,7,8.08,4.4,18.82,3.18,28,6,13.23,4.06,28.75,8.19,43,12l24,3c8.5,2.08,36.64,6.17,40,5h23c12.66,0,26.09-.73,37-4l16-6c3.34-2.08,4.83-5.48,9-7,6,6.25,14.17,9.49,21,15h5c-1.39-6.11-5.6-14.89-11-17-.12-7,.3-15.71,4-19-1-6.22-2.32-2.64-5-6-4.14-5.21-5-18.79-3-24,2.63-1.86,5.51-1.14,9-3,.33-1,.67-2,1-3l7-1,3-5c5.29-3.73,19.54-2.19,28-2v-12c-7.46-.89-15.06-.63-22-1-.23-2.32-.2-2.82-1-4-9-6.62-22.95-6.36-37-6,.92-14.18,21.87-30.75,26-46,10.77-.61,10,3.24,19,4-.79-6.14-1.89-4.36-3-10-5-.29-5.75-1.4-10-2-.66-3.58-.54-12.21,2-16,2.77-.72,22.78,10.55,25,12h1c-.25-4.72-2.46-6,0-7v-25l-3,1c1.12-2.32.93-1.82,3-3v-11l-11-9c-4.7-2.39-7.83,2.27-12-1-1.9-4.72,3.5-10.31,5-14v-9c1.29-2.88,6.11-4.61,8-7,3.53-4.46,4.79-9.11,8-14h2v-25c-6.6.32-15.85,3.11-18,8h-2c.5-14.94,12.57-46.18,20-52v-42c-2.46.63-1.6.37-4,0-3.44,5.41-8.93,9.35-10,17-1.73.65-1,.2-2,1h-1c2.9-14.08,2.36-49.84-4-57,1.08-9.23,6.08-13.69,13-17,.24-12.18-6.33-10.31-13-15-9.17.12-16.19,5.24-21,10h-5c.67-1.33,1.33-2.67,2-4-2.4-1.69-3.05-4-5-6v-1c-3.1,1.81-1.65,4.88-4,7-3.73,3.37-9.68,3.21-14,6-6.6,4.26-24.79,15.48-28,22h-2q-.49-17-1-34C2706,1648.39,2712.71,1635.41,2723,1626Zm-198,31h-1v-2h1Zm3,6a25.53,25.53,0,0,0-2-5c1.92,1.51,2.28,2.16,3,5Zm-49,265c-10.1-3.38-18.57-11-27-16h-4c-8-4.07-17-10.71-24-16-1.88-1.41-4.17-.55-6-2-4.32-3.42-6.52-9.63-12-12,.4-2,.25-1.93,1-3,.77-.69,2.23-1.32,3-2,29.95-.08,43.87,17.11,58,33,4.93,5.55,11,9.34,15,16C2480.39,1925.6,2480.63,1924.92,2479,1928Zm25,98c-1.73.65-1,.2-2,1h-3l3-8h2Zm0-32c-3.23-10.47-8.76-23-9-37l3,1,9,25c1.91,6.64-.27,15.54,3,21v8l-1-1C2504.69,2007.34,2505.92,2000.22,2504,1994Zm7,31c-2.88-1.56-3-3.6-3-8l3,1Zm-5-100c-.35-6.83-6.55-26.59-5-32,2-6.91,6.83-8.3,7-19,1.45,2,.9,4.37,2,7,7.12,17,11.21,28.28,1,46C2507.83,1926.43,2508.09,1926.12,2506,1925Zm16,97c-3.75-.36-3.72-.78-6-2q-1-12-2-24c5.95,4.79,4.49,16.74,9,23C2522.67,2020,2522.33,2021,2522,2022Zm12-175v1c-2.31-3-3.08-8.84-3-14,1.89,2,2.3,5.75,4,8C2534.89,1844.53,2534.88,1845.71,2534,1847Zm4,26c-.76-1.08-.63-.92-1-3h1Zm6-6v5h-2c-1.67-6.36-2.19-8-2-16C2542.47,1858.45,2544.49,1864.73,2544,1867Zm13,24c-.16,4.61-.69,5.8-3,8v1c-3.41-5.3-1.36-14.94-7-18a44.16,44.16,0,0,1,1-9C2551.52,1875.64,2559.27,1886.38,2557,1891Zm14,101c-2.49-1.47-1.17.25-2-3l2,2Zm3-45c-3.39-1.87-4.71-8.14-6-12,3.56,2,3.64,7.82,6,11Zm30-433c2.53,3.27,8.62,34,10,40,.95,4.14-.68,9.13,1,12v18h-1c-4.25-8.36-12.05-17.53-15-26C2596.73,1551.46,2602.5,1519.6,2604,1514Zm-1,452h-3l-1-1v-23h1c1.12,3.78,4.08,5.11,5,8Q2604,1958,2603,1966Zm6,3h-2q.49-6,1-12C2610.83,1960.35,2608.42,1965.52,2609,1969Zm2-48v11h-1c-2.62-8,1-19.59,2-28C2612.82,1905.43,2612.82,1918.38,2611,1921Zm8,25q1-15,2-30h1c2.29,5.61,2.54,20.64,3,30Zm27-84c-2.49-3.35-1.7-11.6-1-17h2C2646.08,1849.52,2645.91,1856.05,2646,1862Zm8,4c-3.12-.6-2.43-.17-4-2a12.5,12.5,0,0,0,4,1Zm6-8-3,1c-1-2.89-2.52-25.22,0-29v-10h1l3,9h-3c.82,4.37,3,4.21,4,7C2664.06,1841.63,2661,1853.16,2660,1858Zm5-108c-.76-1.08-.63-.92-1-3h-3v3h-1a16.83,16.83,0,0,1,2-6l1-1c.66.86,1.35,3.14,2,4Zm-1-76c-1.5,3.46-4.95,7-7,10-2.41,3.54-3.77,7.29-8,9-1,.81-.25.37-2,1-2.7-3.48-5.24-4.16-6-10l-7-2a31.93,31.93,0,0,1-10,5q-1,8-2,16l-1-1c-3.66-1.47-2.9-3.28-5-6v-1c-2.76,1.31-4.15,3.89-5,7a19.17,19.17,0,0,1-4-2l-3-1c.33-2.67.67-5.33,1-8-3.7.45-2.94.56-5,2-2.43,2.14-7.16-4-9-6-6.43-6.9-13.58-21.66-9-36,6.84-21.42,27.7-29,42-43,2-4.84-4.63-11.68-6-17v-17c-.16-13-2.71-27.58,4-36,2.07.42,12.41,14.72,14,19,1.24,3.34.05,27.49-1,29v14c9.6-5.73,23.78-14.82,30-24h2c-.45,10.09-5.67,15.27-8,23q-.49,11.51-1,23c.44,11.71,5.18,20.81,8,32,.48,1.9,3.17,10.7,2,13l-3,1C2664.67,1670,2664.33,1672,2664,1674Zm4,78h-1c.33-1,.67-2,1-3,1.73.65,1,.2,2,1Zm4-35h-1v-21c2.65,3.74,1.92,14.81,3,17C2673.26,1715.32,2673,1715.23,2672,1717Zm4-37c-4.47-2.66-1.54-6.16-3-12-3.29-13.17,2.05-22.09,5-34h3c1.35,1.6.61,1.16,3,2,1.95,8.39,5.07,15.68,5,26-5.14,4.85-8,12-13,17Zm11,48-1,1v-1h-6c-.65-1.73-.2-1-1-2,.49-7.59,4.92-9,8-14h2C2689.06,1717.54,2688.1,1726.42,2687,1728Zm3-30-11,11v1h-1c-4.46-22.4.85-25.16,11-41C2692.35,1674.19,2690.16,1690.56,2690,1698Zm69,311h3c-1.48,2.47-.42,1.58-4,2-.79,3-1.55,3.52-2,7-5.47.83-7.63,3.34-12,5l-1-1C2743.21,2010.91,2753,2013.87,2759,2009Zm-62-306c1.29-2.9,6.43-5.06,9-7,6.3-4.76,11.88-12.08,19-16,6.31-3.48,13.88-4.43,19-9h2c-3.46,10.17-12.64,18-13,31-7.83-1.17-15.06-3.93-24-4-.33,1-.67,2-1,3,6.77,2.9,10.17,6.46,15,11v3c-3.47-2.21-8.52-4.32-12-7-5.65-.17-6.62-.39-7,5-3.41-.59-3.16-1.94-5,1h-2Zm8,12v-3c3.17,1.22,5.37,4.33,7,7A53,53,0,0,1,2705,1715Zm4,7v3l-1-1c-1.92-1.51-2.28-2.16-3-5Zm1,109c10.25-9.6,18.52-21.62,29-31,7.81-7,14.18-8,20-17a5.75,5.75,0,0,1,0,6v14c-2.1-1.19-4.25-5.93-5-10l-1,1c-5.44,3-5.84,13.61-5,24,.33,2,.67,4,1,6-.3,1.11-2.75,4.1-3,5,.33,1.67.67,3.33,1,5l-4,3v4l-3,1c-2.85,3.25-4.27,6.69-8,9h-3c-2.12,1.69-6,9.47-8,11-2.52,2-21,9-22,9l-1,1c-.7-2.7-1.38-4.33-3-6v-22C2696.45,1841.19,2707.08,1833.73,2710,1831Zm37,363c1.51,1.87,2.78,1.7,4,4,2.8-.43,3.28-3,6-2,2.3.84,2.71,4.54,7,2h8v-1C2765.9,2194.07,2757,2193.76,2747,2194Z"/>
    </clipPath>
  </defs>
  <g id="window_outsite" class="cls-2">
    <path id="_path_" data-name="&lt;path&gt;" class="cls-3" d="M2795,0V1138h-1c-8.16-4.94-38.84-1.35-51-4-15.83-3.44-33.93-.28-51-4-11.62-2.53-25.14-.2-38-3-15.15-3.29-33.17-3.88-50-4q.49-518.44,1-1037c12.73-6.22,23.7-17,35-25,20.24-14.25,40.74-26.79,61-41,7.25-5.08,19-17.18,27-20Z"/>
  </g>
  <g id="window" class="cls-2">
    <path id="_path_2" data-name="&lt;path&gt;" class="cls-3" d="M2469,0h262V1h-2L2606,86V233c2.29,3.7,1,13.47,1,19V475q.49,324.46,1,649l187,12v79c-7.9-.71-44.68-5-49-8-7.19-8.1-15.41-42-25-44-1.49,3-5,6.35-6,9v34h-1c-9.22-5.53-42.56-3-56-6-41.55-9.35-88.47-5.81-130-15-11.11-2.46-39.74-.36-47-5-.79-1.56.45-4.64-1-7-1.26-1-6.22-1.66-7-3V1056c-8.09-11.54-4-58.23-4-78V0Z"/>
  </g>
  <g id="flowers" class="cls-2">
    <path id="_path_3" data-name="&lt;path&gt;" class="cls-3" d="M2632,1326c-.24-11.67-3.25-22,1-34,8-22.42,20.76-35.36,19-67-.32-5.79,1.68-9.66,0-14,2.11-1.51,2.37-3.11,4-5v1c1.35,2.32-.84,2.62,0,5l3,2c3.17,7.22,1.31,14.4,4,22,3.72,10.53,7.57,22.65,11,34,1.52,5,4.29,17,3,20-2.42,6.48-9.33,6.85-14,11-2.37,2.11-3.65,5.86-6,8-7.05,6.44-15.8,9.7-22,17Z"/>
    <path id="_path_4" data-name="&lt;path&gt;" class="cls-3" d="M2519,1484l-8,1c-3.16,7.76-8.25,9.48-20,9-2.92-2.37-6.41-2-10-4-7.67-4.28-20.31-19.3-25-27-9.4-15.43-9.47-39.59-19-55-7.54-12.19-20.39-20.29-27-33h2c8.58,7,19.74,9.5,30,15,25.45,13.65,69.13,35.5,77,65Z"/>
    <path id="_path_5" data-name="&lt;path&gt;" class="cls-3" d="M2679,1626c.1-17.13-6.16-33.8-5-47,5.6-4.37,10.34-13.83,14-20h2c1.66,6.28,5.74,11.37,8,17,5.65,14.07,6.7,33,3,48-3.66,2-4.05,4.12-9,5C2689.05,1626.11,2685.16,1625.85,2679,1626Z"/>
    <path id="_path_6" data-name="&lt;path&gt;" class="cls-3" d="M2605,1700a50.14,50.14,0,0,1,1-11h-1a9.86,9.86,0,0,1-7,5c-4.84-6.53-11.67-10.81-15-19-3.26-8-2.14-21.54,1-29,8-19,39-37.2,54-47,9.4-6.15,18.05-19.27,29-23v5c-7.37,8.47-12.33,35.45-8,50,2.45,8.23,10.64,19.16,8,31-3.3,14.82-11.1,21.66-18,32h-2c-1.65-2.34-5.48-8.58-8-10-1.68-1.34-3.14-1.64-6-2-2.57,2.48-8.33,6.09-12,7a18.26,18.26,0,0,1-1-6c.88-1.29.89-2.47,1-5h-1v2C2615.25,1687.85,2617.82,1700,2605,1700Z"/>
    <path id="_path_7" data-name="&lt;path&gt;" class="cls-3" d="M2793,1608h2c.1,7.41.18,16.1-1,22-9.23,2.28-40,29-39,37l-7,1c2.24-6.32-2.39-5.87-3-14,1.7-1.9.49-3.42,2-6a115.61,115.61,0,0,1,16-21c5.58-5.58,14.13-11,21-15C2787.26,1610.1,2790.46,1610.37,2793,1608Z"/>
    <path id="_path_8" data-name="&lt;path&gt;" class="cls-3" d="M2495,1778c-3.92.42-3.21,1-6,2-2.57-3.69-7.44-4.63-10-8-6.46-8.51-9.81-18.33-19-24-2.42-1.49-5.31-.37-8-2-1.22-.74-.95-4.31-2-5h-11c-8.09-2.15-19.18-3.35-22-11h3c8.09,6.7,27.59-7,39-5,23.95,4.28,45.53,20.49,46,48-2.1-.79-1.81,0-3-1-.68-.77-1.31-2.23-2-3C2496.74,1771.89,2495.24,1771.67,2495,1778Z"/>
  </g>
  <g id="greens" class="cls-2">
    <g class="cls-4">
      <image id="greens_Billede" data-name="greens Billede" width="2795" height="2400" xlink:href="assets/kokken-021.png"/>
    </g>
  </g>
  <g id="wall" class="cls-2">
    <path id="_path_9" data-name="&lt;path&gt;" class="cls-3" d="M1270,0q.49,335.46,1,671H1075c-4.43,13.3-1.09,36.54-1,52,5.19,5.63,13,23.59,17,31,.67,2,1.33,4,2,6h164c5.49-3.38,21.3-1,29-1h391c8.52-3,24.77-17.51,33-23,4.56-3,21.12-10.94,23-15V672c-13.38-4.4-51-1-68-1H1514v-2c-3.79-6.14-1-40-1-50V488q.49-243.48,1-487c317,.16,637.46-1,956-1q-.49,522-1,1044h-1v-2c-3.46-2.76-5.16-8.87-9-11-5.77-3.2-16.56-2-25-2-19.22,0-39.26-2-56,0-1.4,4.12-2.89,4.62-3,11,8.77,8.73,9.54,12.36,28,12v-5c14.75-.06,30.76.4,44,1,.33,1,.67,2,1,3,5.72,6.64,4,34.11,4,47q.49,26,1,52l-4,2v13c-.72,2.62-3.6,4.11-4,5v36c-7.88,3.68-11.82,8.55-12,20,10.23,10.34,10.34,12.42,10,33l-1,1-139-22v-2c-3.82-6.19-1-24.44-1-33V803H855q2.5-358,5-716c-8.24-29.39-26-57-34-87Z"/>
    <path id="_path_10" data-name="&lt;path&gt;" class="cls-3" d="M2481,1180l236,24c.63,30-13,46-24,64-3.86,6.33-6.41,18.71-13,22-1,.8-.27.35-2,1-.11-6.23-2.21-8.52-4-12-2.6-5.07-1.33-10.6-3-16-2.92-9.46-6.69-20.79-10-30-2.83-7.86-2.17-18.93-7-25,.43,19.91-1.55,57.85-10,67-1.76,1.91-4.53,2.63-6,5-2.58,4.16-2.79,10.47-6,14-5.43-5.58-33.06-5.47-43-8-15.29-3.89-37.39-6.08-54-9-15.05-2.65-32.71-8.75-50-9-.72-5.79-1.64-2.52-3-5Q2481.51,1221.51,2481,1180Z"/>
    <path id="_path_11" data-name="&lt;path&gt;" class="cls-3" d="M2795,1212v109c-6.59-.58-26.57-3-31-6-.75-1.07-.6-1-1-3,6.19-5.38,5.39-20.06,3-30-1.64-6.8-4.4-13.45-6-20q-1-13-2-26c-2.53-9.64-7.27-18.85-9-29h1C2753.78,1209.33,2788.09,1211.72,2795,1212Z"/>
  </g>
  <g id="emhatte" class="cls-2">
    <path id="_path_12" data-name="&lt;path&gt;" class="cls-3" d="M1269,0h245V670h219v52l-57,39-583,1c-3.83-14.61-16.58-26.14-21-40V670h197Z"/>
  </g>
  <g id="sink" class="cls-2">
    <path id="_path_13" data-name="&lt;path&gt;" class="cls-3" d="M2485,1267c17.8.12,41.78,5.88,58,10l24,3c20.9,5.22,44.64,7.36,66,12v3c-3.62,4-2.2,12.31-2,21l-294,1h-81c-12,2.48-35.87,3.36-48,0-25.95-7.18-54.38-14.69-80-23-24.39-7.92-49.49-12.38-73-20-7.1-2.3-26-3.85-29-9-.88-1.29-.89-2.47-1-5,138.11.07,281.21-1.78,418-1v-24c-9.37-2.7-10.06-11.59-9-22,13.64-6.71,10.44-23.36,10-43,2.08-.37,1.92-.24,3-1,2.53-3.82,2.11-11.92,2-18,2.08-.37,1.92-.24,3-1,.75-1.07.6-1,1-3-3.49-5.69-1-22.07-1-30,0-24.53-.1-48.93-4-68-10-3.78-33.38-3.32-45-1v5h-18a18.26,18.26,0,0,1-1-6h-4c-2.77-4.11-4.86-4.64-5-12,1.55-1.84,2.8-6,5-7h54c4.12,2.62,18.86,1.85,24,2,4.11,6.31,10.41,11.15,13,19,4.08,12.39,3,29,3,45v76c2.05.35,5.54,1,7,2,3,4.74,1,18.2,1,25v65C2484.32,1263.61,2484.35,1263.46,2485,1267Z"/>
  </g>
  <g id="oven" class="cls-2" fill="black">
    <path id="_path_14" data-name="&lt;path&gt;" class="cls-3" d="M1691,1424h-24v21H1196v-21h-20c-.13-36.46-5.9-82.06,1-117q-1-18-2-36,2.51-17.51,5-35l437-1c16,5.13,37.64,24.47,55,23,0,2-1,.28,0,2,5.45-2.4,7.08,3.46,10,6l4-1,9,5v6c-1.36,2.24-.08,18,0,24-3-.57-3.1-2-5,1-2,3.24,0,27.31,0,35C1690,1367.38,1690.81,1395.9,1691,1424Z"/>
    <path id="_path_15" data-name="&lt;path&gt;" class="cls-3" d="M1558,1323c-1.4.88-5.61,1.08-7,2-28.33,9.09-23.17,55.38,9,57,6.5-5.07,15.18-7.36,19-15C1588.87,1347.29,1575,1324.14,1558,1323Z"/>
    <path id="_path_16" data-name="&lt;path&gt;" class="cls-3" d="M1461,1324c-9.44,9.48-21.6,16-17,34,.79,3.1-.31,6,1,8,3.69,12,16.76,15.14,32,13l9-9c7.52-11.63,5-35.84-6-41C1475.35,1325.53,1468.92,1324,1461,1324Z"/>
    <path id="_path_17" data-name="&lt;path&gt;" class="cls-3" d="M1620,1325c-3.7,2.86-10.34,4.22-13,8-1.63,2.31-.33,5.4-2,8h-2l-4,6c-4.63,9.19,8.33,28.28,13,32,2.34,1.87,5.83,2.07,8,4,4.5-.67,9-1.29,15-2,2.13-3.06,5.92-4.17,8-7,6-8.26,4.44-20.34,4-33C1638.37,1333.94,1636.28,1325.15,1620,1325Z"/>
    <path id="_path_18" data-name="&lt;path&gt;" class="cls-3" d="M1229,1327l-11,11c-11.27,26.79,7.78,44.43,33,41,6.32-7.77,24.26-22.3,12-39-2.14-6.56-8.23-8.21-12-13Z"/>
    <path id="_path_19" data-name="&lt;path&gt;" class="cls-3" d="M1300,1327c-2.52,2.26-6.8,3.46-9,6-1.15,1.33-8,21-8,21-1.43,11.63,19.18,36.08,33,27,15.17-4.86,17.11-24.33,15-40-10.9-8-6.69-14.28-28-14C1301.45,1327.71,1302.86,1327.13,1300,1327Z"/>
    <path id="_path_20" data-name="&lt;path&gt;" class="cls-3" d="M1394,1327c-1.75,1.28-4.22,1.68-7,2-2.81,3.64-7.62,7.77-11,11-2.56,27.57-1,26.13,16,40,7-1.33,15.71-3.33,22-5,5.84-8.86,10.07-13,10-29C1414.42,1335.71,1415.27,1326.65,1394,1327Z"/>
    <path id="_path_21" data-name="&lt;path&gt;" class="cls-3" d="M1687,1472v352l-343,3c-7.77,1.67-17.22-.75-23-2h-24l-94,1c-7.82-1.69-17.06-2-27-2V1472c56-7.44,122.55-2,183-2C1467.74,1470,1581.57,1469,1687,1472Z"/>
    <path id="_path_22" data-name="&lt;path&gt;" class="cls-3" d="M1260,1517c-1.92,1.77-3.14,1.9-7,2-4,6-7.1,7.07-7,18-3.86,6.06-1,24.54-1,33v76c0,12.89-.54,26.62,7,32,6,4.78,40,8.84,53,6,5.59-1.22,14.7-3.55,22-2,9.88,2.09,24.42,1,36,1,18.75,0,41.4,1.43,57-2l34,2,77-1c22.19,0,66.36,6,81-4,9-6.12,3.34-19,6-32,1.37-6.71-1.9-17,0-26,2.62-12.48,3.07-48.2,1-59q-.49-13.5-1-27-2-5.51-4-11c-18.21-11.4-72.84-6-102-6Z"/>
    <path id="_path_23" data-name="&lt;path&gt;" class="cls-3" d="M1176,1837h511v62l-511-2Z"/>
  </g>
  <g id="oven_details" class="cls-2">
    <path id="_path_24" data-name="&lt;path&gt;" class="cls-3" d="M1552,1323c37.72-1.12,38.4,50.29,10,58-17.4,4.73-34.55-17.41-30-35C1535.5,1332.48,1542.45,1330.21,1552,1323Z"/>
    <path id="_path_25" data-name="&lt;path&gt;" class="cls-3" d="M1236,1324c21.51-.49,37.51,18.72,28,41-3.14,7.35-9.58,10-15,15-5.41.51-11.67,2-17,0-11.77-4.53-22.21-23.15-15-40,3.14-7.34,9.57-10,15-15C1234.33,1324.8,1234.83,1324.81,1236,1324Z"/>
    <path id="_path_26" data-name="&lt;path&gt;" class="cls-3" d="M1463,1324c20.72-.4,34.92,19.82,26,41-3,7.12-8.8,10.16-14,15-5.24.48-10.84,2-16,0-11.42-4.42-20.77-23.94-14-40,3-7.12,8.8-10.15,14-15C1461.33,1324.8,1461.83,1324.81,1463,1324Z"/>
    <path id="_path_27" data-name="&lt;path&gt;" class="cls-3" d="M1394,1325c19-.45,37,16,29,37-3.28,8.67-9.86,11.35-16,17-5.41.51-11.67,2-17,0-10.09-3.89-22.17-19.73-16-36,3.29-8.67,9.85-11.35,16-17C1392.33,1325.8,1392.83,1325.81,1394,1325Z"/>
    <path id="_path_28" data-name="&lt;path&gt;" class="cls-3" d="M1620,1325c36.69-1,37.13,50.43,9,58-16.85,4.53-33.47-17.75-29-35C1603.55,1334.29,1610.31,1332.3,1620,1325Z"/>
    <path id="_path_29" data-name="&lt;path&gt;" class="cls-3" d="M1303,1327c37.26-1.14,38.56,47.26,10,55-19,5.14-35.63-19.15-29-37C1287.83,1334.68,1295,1333,1303,1327Z"/>
    <path id="_path_30" data-name="&lt;path&gt;" class="cls-3" d="M1176,1423l20,1v21h471v-22h22a25.25,25.25,0,0,1,1,8c1.89,3.54-2.78,10.48-4,15,11.86,1.78,10.71,4.51,10,18-1,1.42-1,3.27-1,6l-3,3c-13.5-4.42-37.53-3-55-3H1534l-339-1v3h-19Z"/>
    <path id="_path_31" data-name="&lt;path&gt;" class="cls-3" d="M1503,1516h76c7.66,0,25.43,2.08,28,1,4.77,3.82,10.22,9.42,12,16v102c0,13.79,1.39,34.84-5,43-14.28,10.64-63.09,6-88,6-63.87,0-133.92-.56-193-1-20.4-.15-63.72,3.72-79-2-4.54-1.7-6.76-7.81-10-11-1.6-21.83-1-47.54-1-71,0-12.49-1.32-28.24,1-39,4.22-19.53-5.53-33.78,11-42,6.78-3.37,44-1,55-1h176C1491.1,1517,1499.64,1518.06,1503,1516Z"/>
    <ellipse id="_path_32" data-name="&lt;path&gt;" class="cls-1" cx="1431.5" cy="1830.5" rx="361.33" ry="12.02"/>
  </g>
  <g id="pot" class="cls-2">
    <path id="_path_33" data-name="&lt;path&gt;" class="cls-3" d="M2471,2038v-5c7.11-4.69,11.19-10.52,22-12,.33,1,.67,2,1,3,1,1.42,1,3.27,1,6C2486.93,2031.87,2481,2036.56,2471,2038Z"/>
    <path id="_path_34" data-name="&lt;path&gt;" class="cls-3" d="M2487,2061c-.23,3.86-2.17,7.47-2,10,.92,13.95,12,20.08,17,30,.8-1,.35-.27,1-2,6.22-5.81,4.43-13.42,4-24h1c9,8.91,21.94,6.4,37,10,7.95,1.9,22.46,6.12,33,9,12.14,3.31,26.31,3.34,34,5l23,1c18.31,4.26,34.34,6.08,54,1,14.26-3.68,38.37-2.05,45-9,2.58-1.61,1.42-3.4,4-5,1.95,2.05,7.86,4.62,9,7v212c-.8,1.18-.77,1.68-1,4-9,6.89-10.46,10.79-23,16-.15,24.34-24.12,26.07-44,31h-12c-4.26.92-14.19,2.34-20,1-5.28-1.22-39.41-5.34-41-4-9.08-6.42-24.53-6.15-36-10-16-5.35-38.67-14-54-24-8.42-5.52-19.81-15.44-24-25-2-4.62-.42-11.08-3-15-1.13-1.72-3.31-1.72-5-3-5.77-4.39-12.53-13.6-15-21-1.75-5.24-.6-12,0-16-.33-3.33-.67-6.67-1-10-.81-8.81.77-19.81,1-27V2043h1c4.89,3,8.71,1,10,8C2473.78,2054,2480.3,2061.12,2487,2061Z"/>
  </g>
  <g id="floor" class="cls-2">
    <path id="_path_35" data-name="&lt;path&gt;" class="cls-3" d="M0,1982H2023l188,211h106c5.38,3.34,33.22,1,42,1h109c-.11,20.78-3.74,51.31,3,67,5.13,11.95,19.73,13.5,20,30,3.13,4.49,3.87,9.72,7,14,7.67,10.51,21.19,16.38,34,22,13,5.71,27.27,13.16,42,18,20.29,6.67,40.34,6.85,63,12,17.7,4,68.73-2.5,77-8s6.68-12.67,10-23c9.92-4.48,14.9-9.19,22-16,2.45-36,1-76.37,1-114h48v204H0Z"/>
  </g>
  <g id="sokkel" class="cls-2">
    <path id="_path_36" data-name="&lt;path&gt;" class="cls-3" d="M0,1902l1175-1,2-5,510,2,4,4,320,3c6.3,6.68,12.47,13.47,19,20,10.5,10.5,20.5,21.5,31,32,29.5,29.5,57.5,60.5,87,90,10.5,10.5,20.5,21.5,31,32,4.72,4.72,7.18,11.36,16,12,3.3,2,11.73,0,15,2,2.63,4.2,1,15.85,1,22v57c2.49,3.84,1.13,15.23,1,21h-1l-189-212H1095l-232-1L0,1979Z"/>
  </g>
  <g id="sides" class="cls-2">
    <path id="_path_37" data-name="&lt;path&gt;" class="cls-3" d="M856,802c-253.15-.15-507.62,2-762,2q2.5,216,5,432l-1,1L0,1255V784l829-2q-1-285-2-570V18c0-5.09-1.07-13.66,1-17,1.09,8.34,6.06,16.14,9,23,4.48,10.48,6.54,20.48,11,31,3.63,8.57,9.4,18.92,12,28Q858,442.46,856,802Z"/>
  </g>
  <g id="tiles" class="cls-2">
    <path id="_path_38" data-name="&lt;path&gt;" class="cls-3" d="M2305,801q-.49,218-1,436L96,1235V802Z"/>
  </g>
  <g id="counter" class="cls-2">
    <path id="_path_39" data-name="&lt;path&gt;" class="cls-3" d="M1,1304q-.49-26-1-52l1-1c11.91-.14,24.5-3.34,35-6,20.08-5.08,41.8-5.49,60-11H1180v2c-3.54,5.77-5.63,40-5,51,.38,6.54,4.08,14.58,0,20-4.77-2.94-18.17-1-25-1H856C571.56,1306,286.65,1304,1,1304Z"/>
    <path id="_path_40" data-name="&lt;path&gt;" class="cls-3" d="M2026,1266c18.26,1.74,41.29,10.48,58,16,14,4.62,27,5.42,41,10,28.48,9.32,59.64,17.41,89,25l417-2c.46,3.45,2,11.41,1,13-8.43,6.64-18.75,10.35-25,19-1.74,2.4-6.59,16.17-8,17H2421l-248-1-174-58-306-1v-2c4.58-5.16,1.21-21.09,1-30-15.32-8.35-33-17-49-24-8.44-3.71-19.77-5.93-26-12l569,1c70.68,0,136.35-.8,192,13,14.51,3.6,29.57,3.76,43,7,4.93,1.19,9.53-.29,13,2l-409,1A18.26,18.26,0,0,0,2026,1266Z"/>
  </g>
  <g id="over" class="cls-2">
    <path id="_path_41" data-name="&lt;path&gt;" class="cls-3" d="M0,0H829q-1,390.47-2,781L0,783Z"/>
  </g>
  <g id="under" class="cls-2">
    <path id="_path_42" data-name="&lt;path&gt;" class="cls-3" d="M2595,1364c-.4,6.69-3.56,12-6,17-4.06.31-4.57,1.43-7,0-2-1.64.7-1.17-2-2-6.05.36-8.4-8.62-16-10v2c.75,1.07.6,1,1,3,7.47,2.5,18.08,7.59,18,18,3.32,7.32-6.21,31.53-4,42,3.28,15.51,9.72,31.71,11,48-5.49,1.89-8.75,7-13,10-9.16,6.57-19.41,10.86-28,18-4.07,3.39-7.1,8.49-13,10-3-11.74-12.51-19.68-16-30-4.72-14,1.62-33.11-5-44-16.65-27.4-46.81-40.87-76-56-8.81-4.57-18.51-13.27-29-15v1c12.08,11.87,25.86,26.61,33,43,4.69,10.76,4.67,23.33,9,35,6,16.06,22.31,34.8,39,40,8.67,2.7,16.92-1.68,24-2,4,12.25,15.6,20.48,18,35-5.81,4.66-13.43,14.4-17,21-2.55,4.72-2.19,11.51-7,14-8.82-8.42-29.14-13.48-43-16-4.52-.82-12,2.73-18,1-6.12-1.78-15-8.41-22-11-19.29-7.11-54.44.24-63,12-2.86,3.93-3.88,14.29-4,20,2.42.91,1.59,1.07,4,2,13.76-16.43,44.83-20.41,70-14,7.27,1.85,13.64.26,20,3,5.46,2.35,22.76,16.24,26,21,3.52,5.16,4.7,10.75,8,16,2.67,4.25,7.7,8.57,10,13,3.95,7.58,3.53,16,7,24,2.87,6.58,8.68,12.36,12,19h-2c-5.93-8.31-14.93-9.49-25-14a321,321,0,0,0-37-14c-20.7-6.06-36.24-5.94-45-24v-8c-1.63-5.61-.64-9,0-16h-2c-3.19,7.87-8.11,13.43-11,24-3.42,12.51,2.57,29.57,7,38,14.53,27.67,42.24,40.69,67,58,4.41,3.08,9.48,2.7,15,5,6.19,2.58,13.24,7,19,10,1.36.72,10.62,3.49,11,4v11c2.51,3.31,1.56,9.34,4,13l5,3c7.36,6.65,16.69,16.73,17,30l-1,1c-9.73-2.65-14.57-6.91-29-7,.31,6.85,8,16.94,11,24h-2c-2.8-4.26-8.33-6-11-10-3.5-5.23-1.82-13.43-4-20-5.23-15.74-20.65-29.35-37-34-15.21-4.33-33.29,9.06-44,6-3-.86-6.41-4.39-9-6v1h1c14.12,22.93,53.65,10.71,64,43h-3c-3.7-4.16-13.08-4.17-21-4a14.17,14.17,0,0,0-1,4c9.26,7.34,16.16,26.87,18,41h-2c-4.67-5.37-8.48-5-14-9-1.73-1.25-1.65-4.22-3-6-3.14-4.14-9.94-5.66-13-10-1.46-2.07-1.07-4.5-3-6-11.75-9.12-28-14.26-43-20-5.22-2-9,.37-14-2-4.57-2.16-10-5.06-16-6,.33,2.33.67,4.67,1,7l-1,1c-14.07-.39-21.21,3-31,6-6.19,1.9-10.21-.39-16,2-3.64,1.5-7.66,6-11,8-5.13,3-10.67,4.22-12,11h1c7.68-5.72,22.41-3.7,34-3,25.24,1.52,42.34,12.5,67,14,2.5,7.4,9.22,11.8,14,17,6.92,7.53,9.28,19.33,16,27,7.24,8.26,19.83,16.21,22,29-12.23-1-30.88-1.77-38,2-3.15,1.88-3,3.91-7,5-2.52-5.79-13.75-11.19-21-12v2c13.58,5.36,17.45,22.49,25,34,4,6.17,11.35,10.37,14,18h-1c-3.56-3.22-23.36-12.87-30-13v1h2c8.78,8.19,23.72,15.88,28,28-3.65,1.4-5.33,4.19-8,6h-4c-.33,1.33-.67,2.67-1,4-1.61,1-7.83.59-9,1-.33,3-.67,6-1,9a11.55,11.55,0,0,1,2,3c4.4-1.81,3-4.26,9-5,1.54-.77,3.42-.19,7,0,5.58,10.86,14.29,12.55,23,20,7.21,6.17,14.05,14.79,22,20,15.7,10.28,28.27,6.11,34,28-7.6.85-17.21,5.13-21,10-1.34,1.72-.49,5.27-2,7-2.12,2.43-9.26,1.15-12,3-6.91,4.66-14.29,11-18,19h2c1.29-.88,2.47-.89,5-1,3.4-7.81,12.71-10.94,18-17h3v151l-257-2c0-33.72-.93-68.78-1-101-5.85.15-14.69,2.06-18,0-9.59-3.23-15.64-15.09-22-22-8.86-9.63-19-17.38-27-28-5.66-7.5-14.73-13-21-20-24.56-27.48-51.43-52.71-76-80-9.57-10.63-18.9-20.94-29-31l-6-7H1894c-4.56-2.81-12.26,0-18,0l-38-1H1690c-6.22-14.41-3.11-43.46-3-63q-.49-17.51-1-35v-78c0-76.71,1.5-176.48,3-254h-2c-1.52.42-4.38,0-9,0v-2c5-.36,12.72.88,17-2,1.54-2.31,1.12-8.11,1-12-.25-.63-.09-3.8,0-7-3.29-2.32-4.55-3.13-11-3v-1c5-2.15,7.51-21.94,5-37-2.29-13.73-1-52.23-1-77,0-9.91,1.49-19.21,0-27h3c2.28,3.45,11.55,2,17,2h258c25.85-4.45,50.08,5.56,72,13,27.65,9.38,55.76,15.76,81,25,17.51,6.41,36.94,13.76,55,19l33,1h43c7.11-1.65,23.33-3,32-1,19.85,4.6,57.17,1,80,1,15.76,0,36.1,2.27,50-1l25,1c13-.12,34.62-.72,49,1,6.67.8,24.78-.59,30-1,7.91-.62,13.52,1.81,20,1s19,1,25,0C2571.62,1363.48,2582.31,1364,2595,1364Z"/>
    <path id="_path_43" data-name="&lt;path&gt;" class="cls-3" d="M0,1305H397c9.67.08,24,1.19,34,0s25,1.6,34,0c8.51-1.52,20.8,2.13,31,1,25.2-2.79,56,2.82,80-1,.77-.12,4.72,1,7,1,11.12-.11,22.61,1.37,36,0,39.63-4.06,109.64,5.3,143-1h90c6.33,0,14.15,1.41,19,1,14.82-1.24,40.38-1.53,48,0h82l16-1c13.68,2.6,40.33,1,59,1,32,0,67.73,2.48,98-1v112c0,19.54-3,40.75-1,49q.49,35,1,70v360c.53,1.5,1.68,1.67,2,5H0Z"/>
    <path id="_path_44" data-name="&lt;path&gt;" class="cls-3" d="M2795,1363c-.14,35.72-2,72.3-2,110,0,14.15-3,34.92,1,47-4.17,1.32-12.56,4.73-15,8s-2.92,7.31-6,10c-4.79,4.19-12.5,3.3-18,7l-15,22c-4.85,11.41-4.45,24.89-9,36-1.39,3.4-3.62,9.84-6,13-1.74,2.31-6.35,3.62-8,6v4c-3.71,5.88-16.7,23.43-22,27-.43-7.81-3.28-15.55-2-23,16.95-3.22,10.88-39,6-52-1.58-4.22-5.86-9.67-7-14-.91-3.47.45-8.55,1-12h3c1.35-11.08,9.68-16.76,15-24,1.56-2.12.64-4.52,2-7,1.15-2.09,4.69-4.06,6-6,1.59-2.35.78-4.37,2-7,2.5-5.41,7-11.17,10-16,9.85-16,15.95-36.84,21-57q-.49-10.5-1-21c3.39-15,4.91-30.22,5-50,7.21-2.43,20-1.08,29-1C2787,1362.05,2790.94,1362.74,2795,1363Z"/>
    <path id="_path_45" data-name="&lt;path&gt;" class="cls-3" d="M2602,1518c2.08.37,1.92.24,3,1,2.37,3.44,1.61,8.34,3,13,4.47,15,6.91,31,7,52h-1l-1-1c-4-8.44-11.2-16.71-14-25-2.36-7,.52-13,2-18C2603.34,1532.17,2601,1523.9,2602,1518Z"/>
    <path id="_path_46" data-name="&lt;path&gt;" class="cls-3" d="M2622,1537c2.58,2,14,18,15,21,1.14,3.47-1.14,26.12-2,30-1,4.32.82,11.63,0,13-2.33,2.34-5.7,3.63-8,6-1.75-.63-1-.19-2-1C2614.55,1592.35,2614.39,1553.43,2622,1537Z"/>
    <path id="_path_47" data-name="&lt;path&gt;" class="cls-3" d="M2793,1562c0,16.4,1.09,36.26,0,47-24.41,5.49-45.84,30.14-51,55-9,1.92-32.34,18.09-39,24-2.45,2.17-2.58,4.44-6,6v-1c-2.73-4.42-1.87-28.06-3-34,6.68-5.34,9.44-14.86,15-21,2.1-2.32,14.5-12.45,15-12a164.32,164.32,0,0,1,33-30c5.44-3.75,17.32-22.57,22-22v-1h-1l1-1C2782.2,1568.11,2787.12,1563.06,2793,1562Z"/>
    <path id="_path_48" data-name="&lt;path&gt;" class="cls-3" d="M2678,1633c3.31.82,4.35,1.62,6,4,4.24,5.53,4.47,17.16,6,25-6.5,4.73-8.6,15.47-16,19v-1C2666.18,1668.21,2674.26,1642.53,2678,1633Z"/>
    <path id="_path_49" data-name="&lt;path&gt;" class="cls-3" d="M2780,1753h-5c.33-13.14,5.11-26.24,2-40-1.24-5.48-6.91-24-5-30,2.34-7.35,10.87-7.6,12-16-.8-1-.35-.27-1-2-1.55-.12-15-5-15-5-.8-1-.35-.27-1-2,11.73-4.7,17.3-18.58,28-24v95C2791.41,1733.25,2780.83,1747.58,2780,1753Z"/>
    <path id="_path_50" data-name="&lt;path&gt;" class="cls-3" d="M2688,1669h2v32a34.48,34.48,0,0,0-11,10l-1-1C2667.94,1694.93,2682.79,1677.47,2688,1669Z"/>
    <path id="_path_51" data-name="&lt;path&gt;" class="cls-3" d="M2747,1670c-1.3,10.93-11.11,18.48-13,32-4.62-.62-8.17-3-12-4-6.17-1.6-10.66,1.34-15,2,0,5.38-1,7.28-2,11-3.45,1.71-4.35,3.38-9,4v-12C2712.15,1692.46,2724.51,1674.22,2747,1670Z"/>
    <path id="_path_52" data-name="&lt;path&gt;" class="cls-3" d="M2690,1712c-.11,5.76.85,9.1-2,13-.37-2.08-.24-1.92-1-3,.14,3.52.49,2.67,0,5l-1,1a16.83,16.83,0,0,0-6-2v-6l2,1v-1h-1l1-1c.74-.79,2.74-.13,4-2C2687.73,1714.44,2683.76,1713.42,2690,1712Z"/>
    <path id="_path_53" data-name="&lt;path&gt;" class="cls-3" d="M2409,1716v2h1v-2Z"/>
    <ellipse id="_path_54" data-name="&lt;path&gt;" class="cls-1" cx="2410.5" cy="1720" rx="0.71" ry="1.41"/>
    <path id="_path_55" data-name="&lt;path&gt;" class="cls-3" d="M2773,1827a118.67,118.67,0,0,1,9-37l3-11c3.31-3.45,5.71-4.29,9-9h1v2c-2.73,4.82,1.28,33-1,45C2784.38,1817.84,2780.63,1825,2773,1827Z"/>
    <path id="_path_56" data-name="&lt;path&gt;" class="cls-3" d="M2763,1779c-.25,10.19-1.65,18.85-2,30h-3c-.55-5.16-2.91-9.32-7-11-1.51,10.28-.67,37.52-4,41-12.49,14.8-30.77,31.43-50,36-1.46-3.82-3-3.86-4-6v-26c8.33-.16,22.54-6.89,28-16,4.85-8.08-1.2-16.15,10-19v-3c.23,0,19.07-14.73,22-17C2756.86,1785,2757.07,1780.25,2763,1779Z"/>
    <path id="_path_57" data-name="&lt;path&gt;" class="cls-3" d="M2656,1829c3.12,1.63,6.08,4.1,7,8,2.25,4-1.75,18.63-3,24h-4c-1.08-3.13-1.06-8.41-1-13C2657.73,1843.56,2654.92,1832.15,2656,1829Z"/>
    <path id="_path_58" data-name="&lt;path&gt;" class="cls-3" d="M2531,1833c3.58,3.07,4.14,9.18,4,16h-2C2532.17,1843.3,2529.4,1838.33,2531,1833Z"/>
    <path id="_path_59" data-name="&lt;path&gt;" class="cls-3" d="M2795,1892c-9.26-1.88-14.6-5.85-26-6,.09-14.83,15.37-43.47,26-47Z"/>
    <path id="_path_60" data-name="&lt;path&gt;" class="cls-3" d="M2647,1863a12.5,12.5,0,0,1-4-1c.19-1.07.66-16.42,0-17a8.64,8.64,0,0,1,4-3v6C2647.52,1849.41,2647.08,1858.4,2647,1863Z"/>
    <path id="_path_61" data-name="&lt;path&gt;" class="cls-3" d="M2539,1855c2.47,1.29.68-.43,2,2,3.31,3.29,5.63,11.57,2,16-1-.8-.27-.35-2-1C2539.42,1865.77,2539,1864.13,2539,1855Z"/>
    <path id="_path_62" data-name="&lt;path&gt;" class="cls-3" d="M2547,1872c7.07,2.52,11.23,12.78,11,23-1.61,1.91-1.89,3.49-4,5l-1,1c-.1-5.82-1.61-5.23-3-8C2547,1886.94,2546.7,1876.93,2547,1872Z"/>
    <path id="_path_63" data-name="&lt;path&gt;" class="cls-3" d="M2405,1882c.37-2.08.24-1.92,1-3,3.52-3.22,8.87-3.2,16-3,5.21,4.58,14.11,3.87,20,8,9.52,6.67,38.59,32.39,42,43-4.18.17-1.73.49-6,2-4.06-3.5-9-4.2-14-7-1.09-.61-2.1-3.37-3-4-4.74-3.31-9.91-3-15-6-4.33-2.58-8.92-7.23-13-10-3.29-2.23-6.72-1.75-10-4C2417.73,1894.38,2410.84,1883.72,2405,1882Z"/>
    <path id="_path_64" data-name="&lt;path&gt;" class="cls-3" d="M2609,1936c-.9-10.8,1.29-22.22,1-32,1.46-1,2.18-3.57,3-2,2.08,3.68-.58,27.09,0,33l-1,1Z"/>
    <path id="_path_65" data-name="&lt;path&gt;" class="cls-3" d="M2625,1947l-6,1v-22c1.64-2.48,1.12-8.9,1-13h1v1c3.47,3,3.25,8.19,3,15C2626.54,1932.85,2625.38,1943.56,2625,1947Z"/>
    <path id="_path_66" data-name="&lt;path&gt;" class="cls-3" d="M2793,2008c-11.35-.21-18.75,2.06-27,4v3h-6c-2.75,4.67-8,11.57-15,12-2.81-5.86-4.31-8.76-4-16,8.61.1,5.9-1.86,10-4,6.53-3.41,14.33,3.07,18-3-4.75-1.34-22.11-6.7-28-5-3.59,1-2.69,3.67-9,4,.07-6.92.58-10.52,0-16,2.08-.37,1.92-.24,3-1,5.07-5.1,7.27-13.62,13-18v-5h3a27.14,27.14,0,0,1,10-16c3,2.06,8.52,2.88,13,3v-2c-3.31-1.68-8.79-3.7-12-5v-4h-6v-4c2.28-1.22,2.25-1.64,6-2,1,.8.27.35,2,1,0-3.79.43-9.44,3-11,5.8,3.94,22.83,7.7,26,13Z"/>
    <path id="_path_67" data-name="&lt;path&gt;" class="cls-3" d="M2567,1933c2.08.37,1.92.24,3,1,3.18,4.17,6.06,14.87,3,19C2571.87,1945.09,2566.94,1939.8,2567,1933Z"/>
    <path id="_path_68" data-name="&lt;path&gt;" class="cls-3" d="M2597,1940c2.08.37,1.92.24,3,1,5,5.3,8.56,18.87,2,27-1-.8-.27-.35-2-1a10.92,10.92,0,0,0-2-3C2598.55,1957.92,2597.11,1948.19,2597,1940Z"/>
    <path id="_path_69" data-name="&lt;path&gt;" class="cls-3" d="M2608,1954c4.32,4.32,2.69,13.49,2,18l-1-1c-2.54-1.29-2.87-1.1-4-4C2606.59,1964.6,2607.09,1959,2608,1954Z"/>
    <path id="_path_70" data-name="&lt;path&gt;" class="cls-3" d="M2495,1955c2.87,1.12,1.84.17,3,3,8.3,10.62,12.71,37.58,13,56h-2c-1-1.77-1.26-1.68-2-4-2.38-3.46-1.52-8.36-3-13C2500.31,1985.41,2492.86,1969,2495,1955Z"/>
    <path id="_path_71" data-name="&lt;path&gt;" class="cls-3" d="M2513,1994c2.42.91,1.59,1.07,4,2,1.19,9.76,6.58,19.74,5,30h-2c-1.11-3-1.49-2.66-4-4Z"/>
    <path id="_path_72" data-name="&lt;path&gt;" class="cls-3" d="M2795,2022v173h-47c0-34-1-68.41-1-101h2c3.82,5.12,10.27,7.77,19,8v-1c-4.92-2.52-18.57-18.11-16-27,.93-3.22,5.68-8.45,4-14-.77-2.55-5.07-4.87-6-7q-1-8.51-2-17C2763.94,2025.66,2769.94,2021.79,2795,2022Z"/>
  </g>
  <g id="shadow">
    <image id="shadow-2" data-name="shadow" width="2795" height="2400" xlink:href="assets/kokken-022.png"/>
  </g>
</svg>
