<svg xmlns="http://www.w3.org/2000/svg" viewBox="0 0 68.41 67.9"><g id="Lag_2" data-name="Lag 2"><g id="logo"><path d="M57,24.18,32.72,7a5.84,5.84,0,0,0-7.22.38C21.87.87,19.74-.43,17.82.11,15.5.75,15.1,3.93,15,7a103.16,103.16,0,0,0,.88,13.67L1.07,41.49a5.83,5.83,0,0,0,1.38,8.12L26.73,66.83a5.82,5.82,0,0,0,8.11-1.37L58.37,32.29A5.82,5.82,0,0,0,57,24.18ZM18.86,3.81c.65.59,2,2.21,4.29,6.56l-4.22,6C18.15,7.92,18.53,4.89,18.86,3.81ZM32,63.44a2.34,2.34,0,0,1-3.25.55L4.47,46.76a2.34,2.34,0,0,1-.56-3.25L25,13.87c1.32,2.69,2.88,6.08,4.72,10.34a4.67,4.67,0,0,0-.32.4,4.36,4.36,0,1,0,3.5-1.84c-2.17-5-4-9-5.6-12.14l.2-.28a2.34,2.34,0,0,1,3.25-.56L55,27a2.33,2.33,0,0,1,.55,3.25Z"/><path d="M62.13,28.41c5.31,5.07,7.55,11.1,5.58,15.13-.82,1.67-2.85,4-5.4,3.91A6,6,0,0,1,57,42.1c-.11-3.43,4.35-4.59,5.24-9.64A10.08,10.08,0,0,0,62.13,28.41Z"/></g></g></svg>